<?xml version="1.0" standalone="no"?>
<!DOCTYPE svg PUBLIC "-//W3C//DTD SVG 20010904//EN"
 "http://www.w3.org/TR/2001/REC-SVG-20010904/DTD/svg10.dtd">
<svg version="1.0" xmlns="http://www.w3.org/2000/svg"
 width="577.000000pt" height="433.000000pt" viewBox="0 0 577.000000 433.000000"
 preserveAspectRatio="xMidYMid meet">

<g transform="translate(0.000000,433.000000) scale(0.100000,-0.100000)"
fill="#000000" stroke="none">
<path d="M2332 3409 c-84 -42 -113 -123 -131 -364 -14 -178 -14 -637 -1 -820
19 -258 52 -345 144 -380 75 -29 148 -17 273 44 58 28 107 51 109 51 11 0 2
-35 -21 -80 -34 -67 -33 -102 6 -134 55 -46 142 -36 168 21 6 13 11 55 11 93
0 82 13 123 37 118 12 -2 20 -16 24 -42 13 -79 85 -98 141 -37 31 34 48 87 48
149 0 73 20 131 60 173 38 40 80 52 80 23 0 -9 -7 -37 -17 -63 -21 -59 -13
-95 26 -111 25 -10 36 -9 74 8 60 27 78 63 87 177 8 100 15 125 36 125 10 0
14 -13 14 -44 0 -47 19 -76 48 -76 31 0 83 40 98 75 19 47 18 58 -12 127 l-27
59 20 22 c32 35 43 62 43 107 0 57 -19 88 -101 164 -125 116 -392 283 -788
491 -281 148 -357 169 -449 124z m235 -78 c106 -57 116 -112 54 -305 -44 -135
-61 -249 -61 -396 0 -149 17 -257 65 -416 41 -136 44 -188 12 -235 -31 -46
-131 -88 -210 -89 -102 0 -133 40 -159 201 -19 119 -18 969 0 1089 25 154 61
193 173 187 50 -3 80 -12 126 -36z m347 -175 c333 -172 567 -318 669 -416 51
-50 57 -60 57 -97 0 -23 -5 -54 -11 -70 l-12 -28 -7 25 -7 25 -8 -29 c-11 -39
2 -158 17 -168 10 -6 10 -8 1 -8 -7 0 -13 -10 -13 -22 0 -19 2 -20 10 -8 7 10
10 11 10 2 0 -7 -7 -15 -15 -18 -8 -4 -12 -11 -8 -18 3 -6 3 -8 -2 -4 -4 4
-15 3 -25 -2 -14 -7 -21 -2 -36 28 -37 70 -82 48 -113 -56 -11 -35 -17 -71
-14 -80 4 -10 2 -13 -5 -8 -7 4 -12 3 -12 -3 0 -5 -3 -17 -7 -27 -5 -13 -3
-15 7 -9 9 5 11 4 6 -4 -4 -6 -12 -9 -17 -6 -8 5 -13 -6 -11 -25 0 -5 -24 -5
-60 -1 -4 1 -3 13 2 27 30 78 -8 140 -70 114 -57 -24 -121 -117 -135 -195 -4
-22 -11 -44 -15 -50 -4 -5 -6 -20 -5 -32 1 -12 -2 -20 -6 -18 -10 7 -32 -22
-25 -33 3 -5 -8 -8 -25 -7 -25 2 -29 -1 -24 -19 5 -19 5 -19 -5 -3 -6 9 -9 21
-5 26 7 12 -43 51 -65 51 -24 0 -70 -56 -70 -85 0 -13 -5 -27 -11 -30 -5 -4
-9 -14 -7 -23 2 -10 0 -21 -5 -27 -4 -5 -13 -18 -20 -28 -12 -18 -82 -44 -72
-26 4 5 1 9 -6 9 -13 0 -8 40 12 108 11 35 11 48 0 75 -7 17 -17 64 -21 102
-4 39 -24 122 -43 185 -51 164 -61 242 -54 432 4 145 8 174 37 268 49 163 62
222 58 263 -2 20 -2 37 1 37 2 0 86 -42 185 -94z m-83 -1389 c-10 -9 -11 -8
-5 6 3 10 9 15 12 12 3 -3 0 -11 -7 -18z m-44 -13 c-3 -3 -12 -4 -19 -1 -8 3
-5 6 6 6 11 1 17 -2 13 -5z"/>
<path d="M2930 2968 c-34 -17 -51 -35 -69 -71 -80 -161 124 -324 264 -209 39
31 54 66 55 122 1 130 -136 217 -250 158z"/>
<path d="M2736 2860 c3 -19 -2 -75 -10 -124 -17 -96 -10 -137 27 -144 33 -7
47 17 47 77 0 31 5 62 12 69 9 9 9 12 0 12 -16 0 -32 -33 -32 -67 0 -33 -14
-60 -24 -45 -3 6 -6 57 -5 115 1 59 -3 112 -9 123 -9 16 -10 13 -6 -16z"/>
<path d="M3228 2827 c2 -18 -4 -52 -13 -77 -26 -70 -29 -104 -10 -123 40 -41
95 -5 95 63 0 19 7 47 14 63 8 15 11 27 6 27 -16 0 -40 -44 -46 -82 -7 -43
-23 -61 -44 -48 -11 7 -11 18 4 68 12 39 16 72 12 96 -9 45 -23 55 -18 13z"/>
<path d="M3376 2737 c-50 -50 -46 -126 10 -182 29 -29 42 -35 78 -35 60 0 93
28 101 84 12 76 -41 145 -119 153 -38 5 -48 2 -70 -20z"/>
<path d="M3003 2501 c-115 -72 -59 -271 79 -282 20 -2 40 0 43 3 4 4 13 4 21
1 8 -3 14 -1 14 4 0 5 14 17 30 27 17 9 28 22 25 27 -4 5 -2 9 3 9 5 0 13 20
16 45 9 57 -18 122 -64 155 -46 33 -124 38 -167 11z"/>
<path d="M3304 2485 c9 -44 -5 -45 -51 -5 -18 17 -39 30 -46 30 -7 0 -3 -8 9
-18 11 -9 28 -29 37 -43 8 -15 25 -29 37 -32 24 -6 54 19 46 39 -17 41 -14 44
6 5 30 -57 52 -71 74 -49 18 18 14 50 -11 82 -20 26 -29 15 -14 -18 14 -31 2
-50 -15 -22 -45 74 -83 91 -72 31z"/>
<path d="M2775 2388 c22 -40 25 -56 23 -125 -2 -56 1 -85 11 -96 19 -24 74
-22 96 3 16 18 17 26 5 94 -7 41 -10 92 -7 113 l6 38 -15 -35 c-12 -25 -15
-53 -11 -98 4 -47 1 -66 -10 -77 -30 -31 -38 -18 -49 77 -7 69 -21 103 -53
132 -20 18 -19 16 4 -26z"/>
</g>
</svg>
